<svg width="805" height="142" viewBox="0 0 805 142" fill="none" xmlns="http://www.w3.org/2000/svg">
<path d="M159.572 137.851V4.28971H194.949V27.8542H196.517C199.306 20.0283 203.953 13.8546 210.459 9.33302C216.965 4.81144 224.749 2.55064 233.811 2.55064C242.99 2.55064 250.803 4.84042 257.251 9.41998C263.699 13.9416 267.998 20.0863 270.147 27.8542H271.541C274.271 20.2022 279.209 14.0865 286.354 9.50693C293.557 4.86941 302.068 2.55064 311.885 2.55064C324.374 2.55064 334.511 6.52153 342.295 14.4633C350.138 22.3471 354.059 33.5351 354.059 48.0274V137.851H317.026V55.3315C317.026 47.9115 315.051 42.3465 311.101 38.6364C307.151 34.9264 302.213 33.0714 296.288 33.0714C289.549 33.0714 284.292 35.2163 280.516 39.506C276.74 43.7377 274.852 49.3317 274.852 56.288V137.851H238.865V54.549C238.865 47.9985 236.977 42.7812 233.201 38.8973C229.484 35.0134 224.575 33.0714 218.476 33.0714C214.351 33.0714 210.633 34.1148 207.322 36.2017C204.069 38.2306 201.484 41.1001 199.567 44.8101C197.65 48.4622 196.692 52.7519 196.692 57.6793V137.851H159.572Z" fill="white"/>
<path d="M382.683 137.851V115.764L448.209 34.8105V33.854H384.948V4.28971H492.909V28.3759L431.392 107.33V108.286H495.175V137.851H382.683Z" fill="white"/>
<path d="M560.679 60.6357V137.851H523.559V4.28971H558.936V27.8542H560.505C563.467 20.0863 568.434 13.9416 575.405 9.41998C582.376 4.84042 590.828 2.55064 600.761 2.55064C610.056 2.55064 618.16 4.57956 625.072 8.6374C631.985 12.6952 637.358 18.4922 641.192 26.0281C645.026 33.5062 646.943 42.4334 646.943 52.8099V137.851H609.824V59.4184C609.882 51.2447 607.79 44.8681 603.55 40.2886C599.309 35.651 593.471 33.3323 586.036 33.3323C581.04 33.3323 576.625 34.4047 572.791 36.5495C569.015 38.6944 566.052 41.8247 563.903 45.9405C561.812 49.9984 560.737 54.8968 560.679 60.6357Z" fill="white"/>
<path d="M102.815 131.934C91.0937 138.687 79.5189 142.042 68.0911 142C56.6845 141.878 46.0821 138.682 36.2837 132.413C26.4563 126.093 18.1153 117.009 11.2606 105.161C4.34783 93.2129 0.620585 81.4374 0.0788533 69.8348C-0.491923 58.1819 2.03596 47.4212 7.6625 37.5528C13.3103 27.6051 21.9951 19.2546 33.7168 12.5012C45.4385 5.74777 57.0026 2.43201 68.4092 2.55388C79.837 2.59658 90.4646 5.77779 100.292 12.0975C110.09 18.367 118.446 27.4759 125.359 39.4241C132.213 51.272 135.926 63.0224 136.497 74.6752C137.039 86.2779 134.486 97.0531 128.838 107.001C123.211 116.869 114.537 125.18 102.815 131.934ZM88.5889 106.996C93.9215 103.924 97.5024 99.8526 99.3316 94.7826C101.132 89.6623 101.412 83.9448 100.174 77.6301C98.9853 71.2863 96.4451 64.7509 92.5531 58.0237C88.661 51.2965 84.2594 45.8335 79.3483 41.6347C74.4874 37.4068 69.3852 34.7907 64.0416 33.7862C58.698 32.7817 53.3599 33.8157 48.0272 36.8881C42.6443 39.9894 39.0025 44.1292 37.1018 49.3074C35.2514 54.4567 34.9204 60.2032 36.1087 66.5469C37.3474 72.8616 39.9127 79.3826 43.8048 86.1098C47.6969 92.8369 52.0733 98.3144 56.9341 102.542C61.8453 106.741 66.9978 109.328 72.3917 110.304C77.8069 111.2 83.206 110.098 88.5889 106.996Z" fill="white"/>
<path d="M772.751 129.311C760.879 136.151 749.214 139.525 737.757 139.432C726.321 139.26 715.715 136 705.938 129.651C696.211 123.273 687.964 114.236 681.196 102.538C674.342 90.6906 670.618 78.9798 670.026 67.4061C669.456 55.7533 671.969 44.9675 677.566 35.0488C683.135 25.08 691.78 16.7188 703.502 9.96542C713.614 4.13952 723.528 0.870633 733.245 0.158758C742.961 -0.553109 751.95 1.12902 760.211 5.20514C768.472 9.28126 775.414 15.6569 781.037 24.3322L750.702 41.8099C746.506 36.5293 741.556 33.1898 735.85 31.7915C730.166 30.314 724.38 31.2709 718.494 34.6621C713.514 37.5315 709.947 41.3942 707.792 46.25C705.659 51.0266 705.043 56.5694 705.943 62.8785C706.843 69.1875 709.398 75.9818 713.61 83.2612C717.88 90.641 722.516 96.3366 727.52 100.348C732.575 104.331 737.747 106.605 743.039 107.171C748.33 107.737 753.466 106.585 758.446 103.716C762.119 101.6 764.978 98.9485 767.025 95.7613C769.121 92.5452 770.298 88.9556 770.554 84.9926C770.831 80.9505 770.096 76.7223 768.347 72.308L798.682 54.8303C803.291 63.9559 805.378 73.1286 804.944 82.3484C804.531 91.4891 801.64 100.116 796.272 108.229C790.905 116.342 783.064 123.369 772.751 129.311Z" fill="white"/>
</svg>
